<svg width="424" height="219" viewBox="0 0 424 219" fill="none" xmlns="http://www.w3.org/2000/svg">
<g clip-path="url(#clip0_3079_287)">
<g filter="url(#filter0_dddd_3079_287)">
<path d="M184 155.5C184 154.538 184.212 153.679 184.635 152.923C185.058 152.157 185.637 151.564 186.371 151.144C187.105 150.715 187.923 150.5 188.826 150.5C189.927 150.5 190.868 150.761 191.648 151.284C192.439 151.798 193.013 152.526 193.37 153.469H192.213C191.931 152.806 191.498 152.288 190.915 151.915C190.341 151.541 189.645 151.354 188.826 151.354C188.102 151.354 187.448 151.522 186.865 151.859C186.291 152.195 185.839 152.68 185.51 153.315C185.181 153.941 185.016 154.669 185.016 155.5C185.016 156.331 185.181 157.059 185.51 157.685C185.839 158.31 186.291 158.791 186.865 159.127C187.448 159.464 188.102 159.632 188.826 159.632C189.645 159.632 190.341 159.45 190.915 159.085C191.498 158.712 191.931 158.198 192.213 157.545H193.37C193.013 158.479 192.439 159.202 191.648 159.716C190.858 160.229 189.917 160.486 188.826 160.486C187.923 160.486 187.105 160.276 186.371 159.856C185.637 159.426 185.058 158.833 184.635 158.077C184.212 157.321 184 156.462 184 155.5Z" fill="#F4F6F8"/>
<path d="M210.748 160.402L208.307 156.312H206.486V160.402H205.499V150.612H208.462C209.563 150.612 210.395 150.873 210.96 151.396C211.534 151.919 211.821 152.606 211.821 153.455C211.821 154.165 211.614 154.772 211.2 155.276C210.795 155.771 210.193 156.093 209.393 156.242L211.933 160.402H210.748ZM206.486 155.514H208.476C209.248 155.514 209.826 155.327 210.212 154.954C210.607 154.58 210.805 154.081 210.805 153.455C210.805 152.811 210.616 152.316 210.24 151.971C209.864 151.616 209.271 151.438 208.462 151.438H206.486V155.514Z" fill="#F4F6F8"/>
<path d="M228.372 160.5C227.46 160.5 226.632 160.29 225.889 159.87C225.145 159.44 224.557 158.847 224.125 158.091C223.701 157.325 223.49 156.462 223.49 155.5C223.49 154.538 223.701 153.679 224.125 152.923C224.557 152.157 225.145 151.564 225.889 151.144C226.632 150.715 227.46 150.5 228.372 150.5C229.294 150.5 230.127 150.715 230.87 151.144C231.613 151.564 232.196 152.157 232.62 152.923C233.043 153.679 233.255 154.538 233.255 155.5C233.255 156.462 233.043 157.325 232.62 158.091C232.196 158.847 231.613 159.44 230.87 159.87C230.127 160.29 229.294 160.5 228.372 160.5ZM228.372 159.646C229.106 159.646 229.765 159.478 230.348 159.141C230.931 158.805 231.392 158.324 231.731 157.699C232.069 157.064 232.239 156.331 232.239 155.5C232.239 154.669 232.069 153.941 231.731 153.315C231.392 152.69 230.931 152.209 230.348 151.873C229.765 151.536 229.106 151.368 228.372 151.368C227.638 151.368 226.98 151.536 226.397 151.873C225.813 152.209 225.352 152.69 225.014 153.315C224.675 153.941 224.506 154.669 224.506 155.5C224.506 156.331 224.675 157.064 225.014 157.699C225.352 158.324 225.813 158.805 226.397 159.141C226.98 159.478 227.638 159.646 228.372 159.646Z" fill="#F4F6F8"/>
<path d="M257.189 150.612L254.395 160.402H253.294L250.811 152.055L248.271 160.402L247.198 160.416L244.46 150.612H245.519L247.777 159.197L250.303 150.612H251.403L253.859 159.197L256.131 150.612H257.189Z" fill="#F4F6F8"/>
<path d="M271.781 150.612C272.873 150.612 273.809 150.808 274.59 151.2C275.37 151.592 275.968 152.157 276.382 152.895C276.796 153.633 277.003 154.51 277.003 155.528C277.003 156.536 276.796 157.409 276.382 158.147C275.968 158.875 275.37 159.436 274.59 159.828C273.809 160.211 272.873 160.402 271.781 160.402H268.86V150.612H271.781ZM271.781 159.59C273.155 159.59 274.199 159.235 274.914 158.525C275.639 157.806 276.001 156.807 276.001 155.528C276.001 154.239 275.639 153.236 274.914 152.517C274.199 151.789 273.155 151.424 271.781 151.424H269.848V159.59H271.781Z" fill="#F4F6F8"/>
<path d="M294.318 150.612V151.424H289.972V155.08H293.641V155.892H289.972V160.402H288.984V150.612H294.318Z" fill="#F4F6F8"/>
<path d="M307.049 150.612V156.775C307.049 157.746 307.28 158.465 307.741 158.931C308.211 159.398 308.851 159.632 309.66 159.632C310.469 159.632 311.099 159.403 311.551 158.945C312.012 158.479 312.242 157.755 312.242 156.775V150.612H313.23V156.761C313.23 158.002 312.896 158.936 312.228 159.562C311.57 160.187 310.709 160.5 309.646 160.5C308.583 160.5 307.717 160.187 307.049 159.562C306.391 158.936 306.061 158.002 306.061 156.761V150.612H307.049Z" fill="#F4F6F8"/>
<path d="M333.03 160.402H332.043L326.581 152.167V160.402H325.594V150.612H326.581L332.043 158.833V150.612H333.03V160.402Z" fill="#F4F6F8"/>
<path d="M348.349 150.612C349.44 150.612 350.376 150.808 351.157 151.2C351.938 151.592 352.535 152.157 352.949 152.895C353.363 153.633 353.57 154.51 353.57 155.528C353.57 156.536 353.363 157.409 352.949 158.147C352.535 158.875 351.938 159.436 351.157 159.828C350.376 160.211 349.44 160.402 348.349 160.402H345.428V150.612H348.349ZM348.349 159.59C349.723 159.59 350.767 159.235 351.482 158.525C352.206 157.806 352.568 156.807 352.568 155.528C352.568 154.239 352.206 153.236 351.482 152.517C350.767 151.789 349.723 151.424 348.349 151.424H346.416V159.59H348.349Z" fill="#F4F6F8"/>
<path d="M366.54 150.612V160.402H365.552V150.612H366.54Z" fill="#F4F6F8"/>
<path d="M386.373 160.402H385.386L379.924 152.167V160.402H378.937V150.612H379.924L385.386 158.833V150.612H386.373V160.402Z" fill="#F4F6F8"/>
<path d="M406.532 153.469C406.25 152.825 405.817 152.321 405.234 151.957C404.66 151.583 403.983 151.396 403.202 151.396C402.468 151.396 401.81 151.564 401.226 151.901C400.643 152.237 400.182 152.718 399.844 153.343C399.505 153.959 399.336 154.678 399.336 155.5C399.336 156.322 399.505 157.045 399.844 157.671C400.182 158.296 400.643 158.777 401.226 159.113C401.81 159.45 402.468 159.618 403.202 159.618C403.889 159.618 404.505 159.473 405.051 159.183C405.606 158.885 406.048 158.465 406.377 157.923C406.716 157.372 406.909 156.732 406.956 156.004H402.807V155.206H408V155.92C407.953 156.779 407.718 157.559 407.294 158.259C406.871 158.95 406.302 159.496 405.587 159.898C404.881 160.299 404.086 160.5 403.202 160.5C402.29 160.5 401.462 160.29 400.718 159.87C399.975 159.44 399.387 158.847 398.955 158.091C398.531 157.325 398.32 156.462 398.32 155.5C398.32 154.538 398.531 153.679 398.955 152.923C399.387 152.157 399.975 151.564 400.718 151.144C401.462 150.715 402.29 150.5 403.202 150.5C404.256 150.5 405.178 150.761 405.968 151.284C406.758 151.807 407.332 152.535 407.69 153.469H406.532Z" fill="#F4F6F8"/>
</g>
<g filter="url(#filter1_dddd_3079_287)">
<path fill-rule="evenodd" clip-rule="evenodd" d="M102.688 102.913L102.956 107.716L97.9629 105.62L102.69 102.913H102.688ZM114.891 77.5008C114.891 77.5008 122.086 87.5316 103.455 81.5231C103.455 81.5231 107.523 77.0731 114.891 77.5008ZM105.134 93.8273C111.083 100.889 110.114 112.656 110.114 112.656C108.547 110.161 104.349 108.278 104.349 108.278C106.193 99.8999 105.134 93.8273 105.134 93.8273ZM118.875 102.981L112.098 112.302L111.705 102.675L118.875 102.98V102.981ZM118.304 106.825L119.953 119.918L112.617 113.974L118.303 106.825H118.304ZM128.236 106.136C127.498 116.867 120.212 124.211 120.212 124.211C123.072 113.901 120.949 103.311 120.949 103.311L128.235 106.136H128.236ZM73.3116 102.912L73.0456 107.714L78.0385 105.619L73.3116 102.912ZM61.1086 77.4993C61.1086 77.4993 53.9136 87.5303 72.5447 81.5217C72.5447 81.5217 68.4774 77.0717 61.1086 77.4993ZM70.8674 93.8261C64.9182 100.887 65.887 112.655 65.887 112.655C67.4544 110.16 71.651 108.277 71.651 108.277C69.8067 99.8984 70.8674 93.8261 70.8674 93.8261ZM57.1246 102.98L63.9035 112.301L64.2959 102.673L57.1246 102.979V102.98ZM57.6956 106.824L56.0459 119.916L63.3815 113.973L57.6956 106.824ZM47.764 106.134C48.5016 116.866 55.7884 124.21 55.7884 124.21C52.9294 113.899 55.0509 103.31 55.0509 103.31L47.764 106.134ZM88.0008 69.9618C88.0008 69.9618 109.073 45.8607 124.198 62.9957C134.241 42.6142 143.284 82.4622 146.519 84.3663C131.827 80.7457 128.54 51.1461 101.234 70.5275C128.205 57.1519 128.796 81.8058 134.99 87.9437C134.99 87.9437 127.495 84.1544 119.38 85.8024C119.38 85.8024 121.364 80.2484 117.813 75.965C117.813 75.965 122.748 75.918 125.053 79.2597C120.415 52.8028 97.6914 91.4106 92.956 74.9761C92.956 74.9761 91.5265 79.0239 92.6791 81.8483C92.6791 81.8483 89.0864 78.7412 88.0008 71.0687C86.9151 78.7412 83.3209 81.8483 83.3209 81.8483C84.4749 79.0239 83.044 74.9761 83.044 74.9761C78.3086 91.4106 55.5869 52.8028 50.9488 79.2597C53.2552 75.918 58.1896 75.965 58.1896 75.965C54.6387 80.2484 56.6221 85.8024 56.6221 85.8024C48.506 84.1558 41.013 87.9437 41.013 87.9437C47.2088 81.8058 47.7959 57.1519 74.769 70.5275C47.4619 51.1461 44.1743 80.7457 29.4837 84.3663C32.7185 82.461 41.7592 42.6142 51.8047 62.9957C66.9308 45.8607 88.0022 69.9618 88.0022 69.9618H88.0008ZM102.801 56.1218C102.801 56.1218 94.2282 54.9923 88.0008 61.488C81.7733 54.9923 73.2001 56.1218 73.2001 56.1218C78.4798 50.636 97.5216 50.636 102.801 56.1218ZM152.658 110.905C159.602 101.188 153.594 95.8237 150.148 93.7464C154.96 93.6525 158.701 91.0539 160 86.341C144.32 84.9756 149.568 37.0742 123.012 53.8995C121.169 46.4446 109.374 50.2893 107.556 50.9301C97.2124 43.0233 78.7818 43.0233 68.4396 50.9301C66.6234 50.2893 54.8281 46.4446 52.9838 53.8995C26.4314 37.0773 31.6788 84.9785 16 86.3438C17.2988 91.0568 21.0402 93.6554 25.8508 93.7491C22.4071 95.8265 16.3981 101.191 23.341 110.909C-17.2074 193.697 193.207 193.697 152.658 110.909V110.905ZM147.233 115.881C147.233 115.881 152.123 137.158 132.94 150.714C132.94 150.714 136.905 138.57 130.817 129.343C130.817 129.343 134.413 146.288 112.831 162.482C112.831 162.482 120.026 155.515 119.287 144.218C113.867 172.346 62.1303 172.346 56.71 144.218C55.9722 155.515 63.1658 162.482 63.1658 162.482C41.5823 146.288 45.1805 129.343 45.1805 129.343C39.0935 138.57 43.0593 150.714 43.0593 150.714C23.8756 137.156 28.7655 115.881 28.7655 115.881C31.9935 122 37.3425 123.507 37.3425 123.507C13.9733 93.8657 39.2955 92.0371 68.8854 89.8491C64.182 87.4479 60.2623 88.0148 60.2623 88.0148C66.2796 85.0581 76.5325 80.851 81.9819 86.4137C81.9819 86.4137 75.9854 86.6011 74.6952 92.4377C74.8734 92.604 91.6184 104.206 84.3802 104.206L81.5671 102.7L79.4917 104.347C79.4917 104.347 76.5394 101.993 72.759 100.393C72.759 100.393 71.7444 93.4735 73.128 89.3305C73.128 89.3305 68.7 91.1193 66.2097 98.6511C66.2097 98.6511 55.8805 94.5079 41.3999 100.344C41.3999 100.344 36.3278 118.137 58.6476 134.519C59.0053 101.954 116.993 101.954 117.352 134.519C139.672 118.139 134.599 100.344 134.599 100.344C120.118 94.5079 109.789 98.6511 109.789 98.6511C107.299 91.1193 102.871 89.3305 102.871 89.3305C104.254 93.4735 103.24 100.393 103.24 100.393C99.4576 101.993 96.5069 104.347 96.5069 104.347L94.4315 102.7L91.6184 104.206C84.3802 104.206 101.125 92.604 101.302 92.4377C100.01 86.6011 94.0153 86.4137 94.0153 86.4137C99.4659 80.851 109.719 85.0581 115.737 88.0148C115.737 88.0148 111.817 87.4491 107.113 89.8491C136.703 92.0371 162.025 93.8657 138.657 123.507C138.657 123.507 144.007 122 147.234 115.881H147.233Z" fill="white"/>
</g>
<g filter="url(#filter2_dddd_3079_287)">
<path d="M184 132.045V69.5H208.829C213.286 69.5 217.018 70.1617 220.022 71.4851C223.045 72.8085 225.313 74.6612 226.825 77.0433C228.356 79.4254 229.122 82.1842 229.122 85.3196C229.122 87.7017 228.647 89.8293 227.697 91.7024C226.747 93.5552 225.439 95.0923 223.772 96.3139C222.105 97.5355 220.177 98.3906 217.987 98.8793V99.4901C220.39 99.6122 222.609 100.294 224.644 101.536C226.699 102.778 228.346 104.509 229.587 106.728C230.827 108.927 231.448 111.533 231.448 114.546C231.448 117.906 230.634 120.909 229.005 123.555C227.377 126.182 225.022 128.259 221.941 129.786C218.859 131.292 215.118 132.045 210.718 132.045H184ZM198.391 119.86H207.288C210.408 119.86 212.705 119.239 214.178 117.997C215.67 116.755 216.417 115.025 216.417 112.805C216.417 111.197 216.058 109.813 215.341 108.652C214.624 107.471 213.606 106.565 212.288 105.934C210.97 105.282 209.391 104.957 207.549 104.957H198.391V119.86ZM198.391 95.2145H206.357C207.927 95.2145 209.323 94.9396 210.544 94.3899C211.765 93.8402 212.715 93.0462 213.393 92.0078C214.091 90.9695 214.44 89.7173 214.44 88.2514C214.44 86.1544 213.732 84.5052 212.317 83.304C210.902 82.1027 208.993 81.5021 206.59 81.5021H198.391V95.2145Z" fill="white"/>
<path d="M251.246 132.045H235.779L255.869 69.5H275.028L295.118 132.045H279.651L265.667 85.2585H265.202L251.246 132.045ZM249.182 107.43H281.512V118.913H249.182V107.43Z" fill="white"/>
<path d="M301.529 132.045V69.5H326.125C330.583 69.5 334.43 70.3449 337.667 72.0348C340.923 73.7043 343.433 76.1068 345.197 79.2422C346.961 82.3572 347.842 86.0526 347.842 90.3281C347.842 94.6648 346.941 98.3499 345.139 101.384C343.336 104.397 340.778 106.697 337.463 108.286C334.149 109.853 330.224 110.637 325.689 110.637H310.134V98.7266H323.014C325.185 98.7266 326.997 98.4313 328.451 97.8409C329.924 97.2301 331.038 96.3139 331.794 95.0923C332.55 93.8504 332.928 92.2623 332.928 90.3281C332.928 88.3939 332.55 86.7957 331.794 85.5334C331.038 84.2507 329.924 83.2938 328.451 82.6626C326.977 82.0111 325.165 81.6854 323.014 81.6854H315.92V132.045H301.529ZM335.05 103.46L349.878 132.045H334.178L319.641 103.46H335.05Z" fill="white"/>
<path d="M355.736 132.045V69.5H370.127V95.9474H370.912L390.595 69.5H407.544L386.437 97.4134L407.922 132.045H390.711L375.884 107.461L370.127 115.096V132.045H355.736Z" fill="white"/>
<path d="M183.95 132.045V132.095H184H210.718C215.124 132.095 218.872 131.341 221.963 129.83L221.963 129.83C225.052 128.3 227.414 126.217 229.048 123.582L229.048 123.582C230.681 120.926 231.498 117.914 231.498 114.546C231.498 111.526 230.876 108.911 229.63 106.703C228.386 104.477 226.733 102.74 224.67 101.493C222.642 100.255 220.43 99.5717 218.037 99.4426V98.9193C220.217 98.4278 222.139 97.573 223.802 96.3542C225.475 95.128 226.788 93.5848 227.742 91.7252L227.742 91.725C228.695 89.844 229.172 87.7085 229.172 85.3196C229.172 82.1758 228.404 79.4075 226.867 77.0165C225.349 74.6247 223.073 72.766 220.042 71.4393C217.029 70.1123 213.291 69.45 208.829 69.45H184H183.95V69.5V132.045ZM214.146 117.959L214.146 117.959C212.686 119.19 210.403 119.81 207.288 119.81H198.441V105.007H207.549C209.385 105.007 210.957 105.331 212.266 105.979L212.267 105.979C213.576 106.606 214.586 107.506 215.298 108.678L215.298 108.678C216.01 109.83 216.367 111.205 216.367 112.805C216.367 115.012 215.625 116.728 214.146 117.959ZM213.352 91.9799L213.351 91.9805C212.678 93.0102 211.736 93.7982 210.523 94.3443C209.31 94.8907 207.921 95.1645 206.357 95.1645H198.441V81.5521H206.59C208.985 81.5521 210.882 82.1506 212.285 83.3421C213.687 84.5325 214.39 86.1669 214.39 88.2514C214.39 89.7091 214.043 90.9512 213.352 91.9799ZM251.246 132.095H251.284L251.294 132.06L255.201 118.963H275.689L279.603 132.06L279.614 132.095H279.651H295.118H295.187L295.166 132.03L275.076 69.4847L275.065 69.45H275.028H255.869H255.833L255.822 69.4847L235.732 132.03L235.711 132.095H235.779H251.246ZM265.63 85.3085L272.227 107.38H258.656L265.239 85.3085H265.63ZM301.479 132.045V132.095H301.529H315.92H315.97V132.045V110.687H323.26L334.133 132.068L334.147 132.095H334.178H349.878H349.96L349.922 132.022L337.603 108.273C340.869 106.683 343.395 104.395 345.181 101.409L345.182 101.409C346.99 98.3661 347.892 94.6717 347.892 90.3281C347.892 86.0456 347.009 82.3415 345.24 79.2176C343.472 76.0736 340.954 73.6644 337.69 71.9905C334.445 70.2961 330.589 69.45 326.125 69.45H301.529H301.479V69.5V132.045ZM323.014 98.6766H315.97V81.7354H323.014C325.161 81.7354 326.965 82.0604 328.43 82.7084L328.431 82.7086C329.895 83.3359 331.001 84.286 331.751 85.5588L331.751 85.5591C332.501 86.8115 332.878 88.4002 332.878 90.3281C332.878 92.2561 332.501 93.8344 331.751 95.0663C331.001 96.2779 329.896 97.1875 328.431 97.7947C326.986 98.3819 325.18 98.6766 323.014 98.6766ZM355.686 132.045V132.095H355.736H370.127H370.177V132.045V115.113L375.879 107.55L390.668 132.071L390.683 132.095H390.711H407.922H408.012L407.965 132.019L386.498 97.4161L407.584 69.5302L407.645 69.45H407.544H390.595H390.57L390.555 69.4701L370.887 95.8974H370.177V69.5V69.45H370.127H355.736H355.686V69.5V132.045Z" stroke="#F2F2F2" stroke-width="0.1"/>
</g>
</g>
<defs>
<filter id="filter0_dddd_3079_287" x="154" y="145.5" width="284" height="121" filterUnits="userSpaceOnUse" color-interpolation-filters="sRGB">
<feFlood flood-opacity="0" result="BackgroundImageFix"/>
<feColorMatrix in="SourceAlpha" type="matrix" values="0 0 0 0 0 0 0 0 0 0 0 0 0 0 0 0 0 0 127 0" result="hardAlpha"/>
<feOffset dy="5"/>
<feGaussianBlur stdDeviation="5"/>
<feColorMatrix type="matrix" values="0 0 0 0 0.0705882 0 0 0 0 0.0705882 0 0 0 0 0.0705882 0 0 0 0.07 0"/>
<feBlend mode="normal" in2="BackgroundImageFix" result="effect1_dropShadow_3079_287"/>
<feColorMatrix in="SourceAlpha" type="matrix" values="0 0 0 0 0 0 0 0 0 0 0 0 0 0 0 0 0 0 127 0" result="hardAlpha"/>
<feOffset dy="19"/>
<feGaussianBlur stdDeviation="9.5"/>
<feColorMatrix type="matrix" values="0 0 0 0 0.0705882 0 0 0 0 0.0705882 0 0 0 0 0.0705882 0 0 0 0.06 0"/>
<feBlend mode="normal" in2="effect1_dropShadow_3079_287" result="effect2_dropShadow_3079_287"/>
<feColorMatrix in="SourceAlpha" type="matrix" values="0 0 0 0 0 0 0 0 0 0 0 0 0 0 0 0 0 0 127 0" result="hardAlpha"/>
<feOffset dy="43"/>
<feGaussianBlur stdDeviation="13"/>
<feColorMatrix type="matrix" values="0 0 0 0 0.0705882 0 0 0 0 0.0705882 0 0 0 0 0.0705882 0 0 0 0.03 0"/>
<feBlend mode="normal" in2="effect2_dropShadow_3079_287" result="effect3_dropShadow_3079_287"/>
<feColorMatrix in="SourceAlpha" type="matrix" values="0 0 0 0 0 0 0 0 0 0 0 0 0 0 0 0 0 0 127 0" result="hardAlpha"/>
<feOffset dy="76"/>
<feGaussianBlur stdDeviation="15"/>
<feColorMatrix type="matrix" values="0 0 0 0 0.0705882 0 0 0 0 0.0705882 0 0 0 0 0.0705882 0 0 0 0.01 0"/>
<feBlend mode="normal" in2="effect3_dropShadow_3079_287" result="effect4_dropShadow_3079_287"/>
<feBlend mode="normal" in="SourceGraphic" in2="effect4_dropShadow_3079_287" result="shape"/>
</filter>
<filter id="filter1_dddd_3079_287" x="-9" y="41" width="194" height="219" filterUnits="userSpaceOnUse" color-interpolation-filters="sRGB">
<feFlood flood-opacity="0" result="BackgroundImageFix"/>
<feColorMatrix in="SourceAlpha" type="matrix" values="0 0 0 0 0 0 0 0 0 0 0 0 0 0 0 0 0 0 127 0" result="hardAlpha"/>
<feOffset dy="4"/>
<feGaussianBlur stdDeviation="4"/>
<feColorMatrix type="matrix" values="0 0 0 0 0.0705882 0 0 0 0 0.0705882 0 0 0 0 0.0705882 0 0 0 0.07 0"/>
<feBlend mode="normal" in2="BackgroundImageFix" result="effect1_dropShadow_3079_287"/>
<feColorMatrix in="SourceAlpha" type="matrix" values="0 0 0 0 0 0 0 0 0 0 0 0 0 0 0 0 0 0 127 0" result="hardAlpha"/>
<feOffset dy="15"/>
<feGaussianBlur stdDeviation="7.5"/>
<feColorMatrix type="matrix" values="0 0 0 0 0.0705882 0 0 0 0 0.0705882 0 0 0 0 0.0705882 0 0 0 0.06 0"/>
<feBlend mode="normal" in2="effect1_dropShadow_3079_287" result="effect2_dropShadow_3079_287"/>
<feColorMatrix in="SourceAlpha" type="matrix" values="0 0 0 0 0 0 0 0 0 0 0 0 0 0 0 0 0 0 127 0" result="hardAlpha"/>
<feOffset dy="35"/>
<feGaussianBlur stdDeviation="10.5"/>
<feColorMatrix type="matrix" values="0 0 0 0 0.0705882 0 0 0 0 0.0705882 0 0 0 0 0.0705882 0 0 0 0.03 0"/>
<feBlend mode="normal" in2="effect2_dropShadow_3079_287" result="effect3_dropShadow_3079_287"/>
<feColorMatrix in="SourceAlpha" type="matrix" values="0 0 0 0 0 0 0 0 0 0 0 0 0 0 0 0 0 0 127 0" result="hardAlpha"/>
<feOffset dy="62"/>
<feGaussianBlur stdDeviation="12.5"/>
<feColorMatrix type="matrix" values="0 0 0 0 0.0705882 0 0 0 0 0.0705882 0 0 0 0 0.0705882 0 0 0 0.01 0"/>
<feBlend mode="normal" in2="effect3_dropShadow_3079_287" result="effect4_dropShadow_3079_287"/>
<feBlend mode="normal" in="SourceGraphic" in2="effect4_dropShadow_3079_287" result="shape"/>
</filter>
<filter id="filter2_dddd_3079_287" x="151.9" y="63.4" width="288.201" height="181.745" filterUnits="userSpaceOnUse" color-interpolation-filters="sRGB">
<feFlood flood-opacity="0" result="BackgroundImageFix"/>
<feColorMatrix in="SourceAlpha" type="matrix" values="0 0 0 0 0 0 0 0 0 0 0 0 0 0 0 0 0 0 127 0" result="hardAlpha"/>
<feOffset dy="5"/>
<feGaussianBlur stdDeviation="5.5"/>
<feColorMatrix type="matrix" values="0 0 0 0 0.0705882 0 0 0 0 0.0705882 0 0 0 0 0.0705882 0 0 0 0.07 0"/>
<feBlend mode="normal" in2="BackgroundImageFix" result="effect1_dropShadow_3079_287"/>
<feColorMatrix in="SourceAlpha" type="matrix" values="0 0 0 0 0 0 0 0 0 0 0 0 0 0 0 0 0 0 127 0" result="hardAlpha"/>
<feOffset dy="20"/>
<feGaussianBlur stdDeviation="10"/>
<feColorMatrix type="matrix" values="0 0 0 0 0.0705882 0 0 0 0 0.0705882 0 0 0 0 0.0705882 0 0 0 0.06 0"/>
<feBlend mode="normal" in2="effect1_dropShadow_3079_287" result="effect2_dropShadow_3079_287"/>
<feColorMatrix in="SourceAlpha" type="matrix" values="0 0 0 0 0 0 0 0 0 0 0 0 0 0 0 0 0 0 127 0" result="hardAlpha"/>
<feOffset dy="46"/>
<feGaussianBlur stdDeviation="13.5"/>
<feColorMatrix type="matrix" values="0 0 0 0 0.0705882 0 0 0 0 0.0705882 0 0 0 0 0.0705882 0 0 0 0.03 0"/>
<feBlend mode="normal" in2="effect2_dropShadow_3079_287" result="effect3_dropShadow_3079_287"/>
<feColorMatrix in="SourceAlpha" type="matrix" values="0 0 0 0 0 0 0 0 0 0 0 0 0 0 0 0 0 0 127 0" result="hardAlpha"/>
<feOffset dy="81"/>
<feGaussianBlur stdDeviation="16"/>
<feColorMatrix type="matrix" values="0 0 0 0 0.0705882 0 0 0 0 0.0705882 0 0 0 0 0.0705882 0 0 0 0.01 0"/>
<feBlend mode="normal" in2="effect3_dropShadow_3079_287" result="effect4_dropShadow_3079_287"/>
<feBlend mode="normal" in="SourceGraphic" in2="effect4_dropShadow_3079_287" result="shape"/>
</filter>
<clipPath id="clip0_3079_287">
<rect width="392" height="218" fill="white" transform="translate(16 0.5)"/>
</clipPath>
</defs>
</svg>
