<svg width="27" height="24" viewBox="0 0 27 24" fill="none" xmlns="http://www.w3.org/2000/svg">
<g clip-path="url(#clip0_3079_326)">
<path fill-rule="evenodd" clip-rule="evenodd" d="M16.2541 10.8588L16.3042 11.7592L15.368 11.3663L16.2541 10.8588ZM18.5421 6.0939C18.5421 6.0939 19.8912 7.9747 16.3979 6.8481C16.3979 6.8481 17.1605 6.0137 18.5421 6.0939ZM16.7126 9.1551C17.8281 10.4791 17.6464 12.6855 17.6464 12.6855C17.3526 12.2176 16.5654 11.8647 16.5654 11.8647C16.9112 10.2937 16.7126 9.1551 16.7126 9.1551ZM19.2891 10.8715L18.0184 12.6192L17.9447 10.814L19.2891 10.8715ZM19.1821 11.5922L19.4911 14.0471L18.1157 12.9327L19.1821 11.5922ZM21.0442 11.463C20.906 13.4751 19.5397 14.8521 19.5397 14.8521C20.076 12.9188 19.678 10.9334 19.678 10.9334L21.0442 11.463ZM10.7459 10.8585L10.6961 11.7589L11.6322 11.366L10.7459 10.8585ZM8.4579 6.0936C8.4579 6.0936 7.1088 7.9744 10.6021 6.8478C10.6021 6.8478 9.8395 6.0134 8.4579 6.0936ZM10.2876 9.1549C9.1722 10.4788 9.3538 12.6852 9.3538 12.6852C9.6477 12.2174 10.4346 11.8644 10.4346 11.8644C10.0888 10.2935 10.2876 9.1549 10.2876 9.1549ZM7.7109 10.8713L8.9819 12.6189L9.0555 10.8138L7.7109 10.8713ZM7.8179 11.5919L7.5086 14.0468L8.884 12.9324L7.8179 11.5919ZM5.9558 11.4627C6.094 13.4748 7.4603 14.8519 7.4603 14.8519C6.9243 12.9186 7.322 10.9331 7.322 10.9331L5.9558 11.4627ZM13.5002 4.68034C13.5002 4.68034 17.4512 0.161387 20.2871 3.37419C22.1701 -0.447343 23.8658 7.0242 24.4723 7.3812C21.7176 6.7023 21.1012 1.1524 15.9813 4.78641C21.0385 2.27849 21.1492 6.9011 22.3106 8.052C22.3106 8.052 20.9054 7.3414 19.3838 7.6505C19.3838 7.6505 19.7557 6.6091 19.0899 5.80593C19.0899 5.80593 20.0152 5.79713 20.4474 6.4237C19.5777 1.46302 15.3171 8.702 14.4292 5.62051C14.4292 5.62051 14.1612 6.3795 14.3773 6.9091C14.3773 6.9091 13.7037 6.3265 13.5002 4.88788C13.2966 6.3265 12.6227 6.9091 12.6227 6.9091C12.839 6.3795 12.5708 5.62051 12.5708 5.62051C11.6829 8.702 7.4225 1.46302 6.5529 6.4237C6.9854 5.79713 7.9105 5.80593 7.9105 5.80593C7.2447 6.6091 7.6166 7.6505 7.6166 7.6505C6.0949 7.3417 4.6899 8.052 4.6899 8.052C5.8517 6.9011 5.9617 2.27849 11.0192 4.78641C5.8991 1.1524 5.2827 6.7023 2.5282 7.3812C3.1347 7.0239 4.8299 -0.447343 6.7134 3.37419C9.5495 0.161387 13.5002 4.68034 13.5002 4.68034ZM16.2752 2.08534C16.2752 2.08534 14.6678 1.87355 13.5002 3.09151C12.3325 1.87355 10.725 2.08534 10.725 2.08534C11.715 1.05674 15.2853 1.05674 16.2752 2.08534ZM25.6233 12.3573C26.9254 10.5353 25.7989 9.5294 25.1527 9.14C26.055 9.1224 26.7564 8.6351 27 7.7514C24.06 7.4954 25.0439 -1.48608 20.0648 1.66865C19.7192 0.270858 17.5076 0.991747 17.1667 1.1119C15.2273 -0.370633 11.7716 -0.370633 9.8324 1.1119C9.4919 0.991747 7.2803 0.270858 6.9345 1.66865C1.9559 -1.48551 2.9398 7.496 0 7.752C0.2435 8.6356 0.945 9.1229 1.847 9.1405C1.2013 9.53 0.0746 10.5359 1.3764 12.3578C-6.2264 27.8807 33.2263 27.8802 25.6233 12.3573ZM24.6062 13.2902C24.6062 13.2902 25.5231 17.2796 21.9262 19.8214C21.9262 19.8214 22.6697 17.5444 21.5281 15.8144C21.5281 15.8144 22.2025 18.9915 18.1559 22.0279C18.1559 22.0279 19.5049 20.7215 19.3663 18.6034C18.3501 23.8773 8.6494 23.8773 7.6331 18.6034C7.4948 20.7215 8.8436 22.0279 8.8436 22.0279C4.7967 18.9915 5.4713 15.8144 5.4713 15.8144C4.33 17.5444 5.0736 19.8214 5.0736 19.8214C1.4767 17.2793 2.3935 13.2902 2.3935 13.2902C2.9988 14.4376 4.0017 14.72 4.0017 14.72C-0.380001 9.1623 4.3679 8.8195 9.916 8.4092C9.0341 7.959 8.2992 8.0653 8.2992 8.0653C9.4274 7.5109 11.3498 6.7221 12.3716 7.7651C12.3716 7.7651 11.2473 7.8002 11.0054 8.8946C11.0388 8.9258 14.1784 11.1012 12.8213 11.1012L12.2938 10.8188L11.9047 11.1276C11.9047 11.1276 11.3511 10.6861 10.6423 10.3862C10.6423 10.3862 10.4521 9.0888 10.7115 8.312C10.7115 8.312 9.8812 8.6474 9.4143 10.0596C9.4143 10.0596 7.4776 9.2827 4.7625 10.3771C4.7625 10.3771 3.8115 13.7133 7.9964 16.7849C8.0635 10.6789 18.9362 10.6789 19.0036 16.7849C23.1885 13.7135 22.2372 10.3771 22.2372 10.3771C19.5221 9.2827 17.5854 10.0596 17.5854 10.0596C17.1185 8.6474 16.2882 8.312 16.2882 8.312C16.5477 9.0888 16.3575 10.3862 16.3575 10.3862C15.6483 10.6861 15.095 11.1276 15.095 11.1276L14.7059 10.8188L14.1784 11.1012C12.8213 11.1012 15.961 8.9258 15.9941 8.8946C15.7519 7.8002 14.6279 7.7651 14.6279 7.7651C15.6499 6.7221 17.5723 7.5109 18.7006 8.0653C18.7006 8.0653 17.9656 7.9592 17.0838 8.4092C22.6318 8.8195 27.3798 9.1623 22.9983 14.72C22.9983 14.72 24.0009 14.4376 24.6062 13.2902Z" fill="white"/>
</g>
<defs>
<clipPath id="clip0_3079_326">
<rect width="27" height="24" fill="white"/>
</clipPath>
</defs>
</svg>
