<svg width="35" height="32" viewBox="0 0 35 32" fill="none" xmlns="http://www.w3.org/2000/svg">
<path fill-rule="evenodd" clip-rule="evenodd" d="M20.2541 14.8588L20.3042 15.7592L19.368 15.3663L20.2541 14.8588ZM22.5421 10.0939C22.5421 10.0939 23.8912 11.9747 20.3979 10.8481C20.3979 10.8481 21.1605 10.0137 22.5421 10.0939ZM20.7126 13.1551C21.8281 14.4791 21.6464 16.6855 21.6464 16.6855C21.3526 16.2176 20.5654 15.8647 20.5654 15.8647C20.9112 14.2937 20.7126 13.1551 20.7126 13.1551ZM23.2891 14.8715L22.0184 16.6192L21.9447 14.814L23.2891 14.8715ZM23.1821 15.5922L23.4911 18.0471L22.1157 16.9327L23.1821 15.5922ZM25.0442 15.463C24.906 17.4751 23.5397 18.8521 23.5397 18.8521C24.076 16.9188 23.678 14.9334 23.678 14.9334L25.0442 15.463ZM14.7459 14.8585L14.6961 15.7589L15.6322 15.366L14.7459 14.8585ZM12.4579 10.0936C12.4579 10.0936 11.1088 11.9744 14.6021 10.8478C14.6021 10.8478 13.8395 10.0134 12.4579 10.0936ZM14.2876 13.1549C13.1722 14.4788 13.3538 16.6852 13.3538 16.6852C13.6477 16.2174 14.4346 15.8644 14.4346 15.8644C14.0888 14.2935 14.2876 13.1549 14.2876 13.1549ZM11.7109 14.8713L12.9819 16.6189L13.0555 14.8138L11.7109 14.8713ZM11.8179 15.5919L11.5086 18.0468L12.884 16.9324L11.8179 15.5919ZM9.9558 15.4627C10.094 17.4748 11.4603 18.8519 11.4603 18.8519C10.9243 16.9186 11.322 14.9331 11.322 14.9331L9.9558 15.4627ZM17.5002 8.68034C17.5002 8.68034 21.4512 4.16139 24.2871 7.37419C26.1701 3.55266 27.8658 11.0242 28.4723 11.3812C25.7176 10.7023 25.1012 5.1524 19.9813 8.78641C25.0385 6.27849 25.1492 10.9011 26.3106 12.052C26.3106 12.052 24.9054 11.3414 23.3838 11.6505C23.3838 11.6505 23.7557 10.6091 23.0899 9.80593C23.0899 9.80593 24.0152 9.79713 24.4474 10.4237C23.5777 5.46302 19.3171 12.702 18.4292 9.62051C18.4292 9.62051 18.1612 10.3795 18.3773 10.9091C18.3773 10.9091 17.7037 10.3265 17.5002 8.88788C17.2966 10.3265 16.6227 10.9091 16.6227 10.9091C16.839 10.3795 16.5708 9.62051 16.5708 9.62051C15.6829 12.702 11.4225 5.46302 10.5529 10.4237C10.9854 9.79713 11.9105 9.80593 11.9105 9.80593C11.2447 10.6091 11.6166 11.6505 11.6166 11.6505C10.0949 11.3417 8.6899 12.052 8.6899 12.052C9.8517 10.9011 9.9617 6.27849 15.0192 8.78641C9.8991 5.1524 9.2827 10.7023 6.5282 11.3812C7.1347 11.0239 8.8299 3.55266 10.7134 7.37419C13.5495 4.16139 17.5002 8.68034 17.5002 8.68034ZM20.2752 6.08534C20.2752 6.08534 18.6678 5.87355 17.5002 7.09151C16.3325 5.87355 14.725 6.08534 14.725 6.08534C15.715 5.05674 19.2853 5.05674 20.2752 6.08534ZM29.6233 16.3573C30.9254 14.5353 29.7989 13.5294 29.1527 13.14C30.055 13.1224 30.7564 12.6351 31 11.7514C28.06 11.4954 29.0439 2.51392 24.0648 5.66865C23.7192 4.27086 21.5076 4.99175 21.1667 5.1119C19.2273 3.62937 15.7716 3.62937 13.8324 5.1119C13.4919 4.99175 11.2803 4.27086 10.9345 5.66865C5.9559 2.51449 6.9398 11.496 4 11.752C4.2435 12.6356 4.945 13.1229 5.847 13.1405C5.2013 13.53 4.0746 14.5359 5.3764 16.3578C-2.2264 31.8807 37.2263 31.8802 29.6233 16.3573ZM28.6062 17.2902C28.6062 17.2902 29.5231 21.2796 25.9262 23.8214C25.9262 23.8214 26.6697 21.5444 25.5281 19.8144C25.5281 19.8144 26.2025 22.9915 22.1559 26.0279C22.1559 26.0279 23.5049 24.7215 23.3663 22.6034C22.3501 27.8773 12.6494 27.8773 11.6331 22.6034C11.4948 24.7215 12.8436 26.0279 12.8436 26.0279C8.7967 22.9915 9.4713 19.8144 9.4713 19.8144C8.33 21.5444 9.0736 23.8214 9.0736 23.8214C5.4767 21.2793 6.3935 17.2902 6.3935 17.2902C6.9988 18.4376 8.0017 18.72 8.0017 18.72C3.62 13.1623 8.3679 12.8195 13.916 12.4092C13.0341 11.959 12.2992 12.0653 12.2992 12.0653C13.4274 11.5109 15.3498 10.7221 16.3716 11.7651C16.3716 11.7651 15.2473 11.8002 15.0054 12.8946C15.0388 12.9258 18.1784 15.1012 16.8213 15.1012L16.2938 14.8188L15.9047 15.1276C15.9047 15.1276 15.3511 14.6861 14.6423 14.3862C14.6423 14.3862 14.4521 13.0888 14.7115 12.312C14.7115 12.312 13.8812 12.6474 13.4143 14.0596C13.4143 14.0596 11.4776 13.2827 8.7625 14.3771C8.7625 14.3771 7.8115 17.7133 11.9964 20.7849C12.0635 14.6789 22.9362 14.6789 23.0036 20.7849C27.1885 17.7135 26.2372 14.3771 26.2372 14.3771C23.5221 13.2827 21.5854 14.0596 21.5854 14.0596C21.1185 12.6474 20.2882 12.312 20.2882 12.312C20.5477 13.0888 20.3575 14.3862 20.3575 14.3862C19.6483 14.6861 19.095 15.1276 19.095 15.1276L18.7059 14.8188L18.1784 15.1012C16.8213 15.1012 19.961 12.9258 19.9941 12.8946C19.7519 11.8002 18.6279 11.7651 18.6279 11.7651C19.6499 10.7221 21.5723 11.5109 22.7006 12.0653C22.7006 12.0653 21.9656 11.9592 21.0838 12.4092C26.6318 12.8195 31.3798 13.1623 26.9983 18.72C26.9983 18.72 28.0009 18.4376 28.6062 17.2902Z" fill="white"/>
</svg>
